# xmcd
#
# Track frame offsets: 
#        150
#        11723
#        21887
#        33477
#        43618
#        55982
#        68174
#        83351
#        96865
#        108636
#        122174
#        136551
#        150817
#        164518
#        175298
#        186636
#        198028
#        211239
#        222965
#        237461
#        249943
#        261282
#        274438
#        288854
#        301627
#
# Disc length: 4191 seconds
#
# Revision: 0
# Processed by: cddbd v1.5.2PL0 Copyright (c) Steve Scherf et al.
# Submitted via: ExactAudioCopy v1.1
#
DISCID=5b105d19
DTITLE=Various Artist - 100年後の日本人に残したい… 究極のグループ・サウンズ
DYEAR=2012
DGENRE=A Cappella
TTITLE0=ジャッキー吉川とブルー・コメッツ - 北国の二人
TTITLE1=ザ・テンプターズ - 神様お願い！
TTITLE2=ザ・タイガース - モナリザの微笑
TTITLE3=ヴィレッジ・シンガーズ - バラ色の雲
TTITLE4=ザ・スパイダース - ノー・ノー・ボーイ
TTITLE5=ジャッキー吉川とブルー・コメッツ - 青い瞳
TTITLE6=ザ・サベージ - この手のひらに愛を
TTITLE7=ザ・ジャガーズ - 君に会いたい
TTITLE8=ザ・カーナビーツ - オーケイ！
TTITLE9=ザ・スウィング・ウエスト - ストップ・ザ・ミュージック
TTITLE10=ザ・カーナビーツ - オブラディ・オブラダ
TTITLE11=ヴィレッジ・シンガーズ - 暗い砂浜
TTITLE12=ザ・テンプターズ - おかあさん
TTITLE13=ザ・スパイダース - いつまでも どこまでも
TTITLE14=ザ・ワイルド・ワンズ - 愛するアニタ
TTITLE15=ザ・スパイダース - バン・バン・バン
TTITLE16=ザ・ジャガーズ - マドモアゼル・ブルース
TTITLE17=ザ・ゴールデン・カップス - 愛する君に
TTITLE18=ザ・モップス - 朝まで待てない
TTITLE19=ザ・テンプターズ - 純愛
TTITLE20=ザ・スウィング・ウエスト - 恋のジザベル
TTITLE21=ザ・スパイダース - エレクトリックおばあちゃん
TTITLE22=ザ・スーナーズ - 素晴らしい愛の世界
TTITLE23=アウト・キャスト - 一日だけの恋
TTITLE24=オックス - スワンの涙
EXTD=
EXTT0=
EXTT1=
EXTT2=
EXTT3=
EXTT4=
EXTT5=
EXTT6=
EXTT7=
EXTT8=
EXTT9=
EXTT10=
EXTT11=
EXTT12=
EXTT13=
EXTT14=
EXTT15=
EXTT16=
EXTT17=
EXTT18=
EXTT19=
EXTT20=
EXTT21=
EXTT22=
EXTT23=
EXTT24=
PLAYORDER=
